<?xml version="1.0" encoding="iso-8859-1"?>
<!-- Generator: Adobe Illustrator 21.0.0, SVG Export Plug-In . SVG Version: 6.00 Build 0)  -->
<svg xmlns="http://www.w3.org/2000/svg" xmlns:xlink="http://www.w3.org/1999/xlink" version="1.1" id="Capa_1" x="0px" y="0px" viewBox="0 0 512 512" style="enable-background:new 0 0 512 512;" xml:space="preserve" width="512" height="512">
<g>
	<path style="fill:#FCD82D;" d="M376.955,346.5c9.207-18.558,14.045-39.129,14.045-60c0-74.439-60.561-135-135-135   s-135,60.561-135,135c0,20.871,4.838,41.442,14.045,60H376.955z"/>
	<path style="fill:#F9BD13;" d="M376.955,346.5c9.207-18.558,14.045-39.129,14.045-60c0-74.439-60.561-135-135-135v195H376.955z"/>
	<g>
		<path style="fill:#FCD82D;" d="M256,121.5c-8.284,0-15-6.716-15-15v-61c0-8.284,6.716-15,15-15s15,6.716,15,15v61    C271,114.784,264.284,121.5,256,121.5z"/>
	</g>
	<path style="fill:#F9BD13;" d="M271,106.5v-61c0-8.284-6.716-15-15-15v91C264.284,121.5,271,114.784,271,106.5z"/>
	<g>
		<path style="fill:#FCD82D;" d="M187.123,135.206c-5.887,0-11.472-3.487-13.864-9.264l-11.48-27.716    c-3.17-7.654,0.465-16.428,8.118-19.599c7.652-3.169,16.429,0.464,19.599,8.118l11.48,27.716    c3.17,7.654-0.465,16.428-8.118,19.599C190.98,134.837,189.036,135.206,187.123,135.206z"/>
	</g>
	<g>
		<g>
			<path style="fill:#F9BD13;" d="M324.877,135.206c-1.913,0-3.857-0.368-5.734-1.146c-7.653-3.17-11.288-11.945-8.118-19.599     l11.48-27.716c3.17-7.654,11.946-11.288,19.599-8.118c7.653,3.17,11.288,11.945,8.118,19.599l-11.48,27.716     C336.349,131.718,330.763,135.206,324.877,135.206z"/>
		</g>
	</g>
	<g>
		<path style="fill:#FCD82D;" d="M76,301.5H15c-8.284,0-15-6.716-15-15s6.716-15,15-15h61c8.284,0,15,6.716,15,15    S84.284,301.5,76,301.5z"/>
	</g>
	<g>
		<g>
			<path style="fill:#F9BD13;" d="M497,301.5h-61c-8.284,0-15-6.716-15-15s6.716-15,15-15h61c8.284,0,15,6.716,15,15     S505.284,301.5,497,301.5z"/>
		</g>
	</g>
	<g>
		<path style="fill:#FCD82D;" d="M128.721,174.221c-3.839,0-7.678-1.464-10.606-4.394l-42.427-42.426    c-5.858-5.857-5.858-15.355,0-21.213c5.857-5.858,15.355-5.858,21.213,0l42.427,42.426c5.858,5.857,5.858,15.355,0,21.213    C136.398,172.756,132.56,174.221,128.721,174.221z"/>
	</g>
	<g>
		<path style="fill:#F9BD13;" d="M383.279,174.221c-3.839,0-7.678-1.464-10.606-4.394c-5.858-5.858-5.858-15.355,0-21.213    l42.427-42.426c5.858-5.858,15.356-5.857,21.213,0c5.858,5.858,5.858,15.355,0,21.213l-42.427,42.426    C390.957,172.756,387.117,174.221,383.279,174.221z"/>
	</g>
	<g>
		<path style="fill:#F9BD13;" d="M422.305,232.621c-5.887,0-11.472-3.487-13.864-9.264c-3.17-7.653,0.465-16.428,8.118-19.598    l27.716-11.48c7.653-3.171,16.427,0.464,19.599,8.118c3.17,7.653-0.465,16.428-8.118,19.598l-27.716,11.48    C426.162,232.253,424.218,232.621,422.305,232.621z"/>
	</g>
	<g>
		<path style="fill:#FCD82D;" d="M89.696,232.621c-1.913,0-3.856-0.368-5.734-1.146l-27.717-11.48    c-7.653-3.17-11.288-11.945-8.118-19.599s11.942-11.287,19.599-8.118l27.717,11.48c7.653,3.17,11.288,11.945,8.118,19.599    C101.168,229.134,95.582,232.621,89.696,232.621z"/>
	</g>
	<g>
		<path style="fill:#76E2F8;" d="M497,361.5H15c-8.284,0-15-6.716-15-15s6.716-15,15-15h482c8.284,0,15,6.716,15,15    S505.284,361.5,497,361.5z"/>
	</g>
	<path style="fill:#25D9F8;" d="M497,331.5H256v30h241c8.284,0,15-6.716,15-15S505.284,331.5,497,331.5z"/>
	<g>
		<path style="fill:#76E2F8;" d="M437,421.5H75c-8.284,0-15-6.716-15-15s6.716-15,15-15h362c8.284,0,15,6.716,15,15    S445.284,421.5,437,421.5z"/>
	</g>
	<path style="fill:#25D9F8;" d="M437,391.5H256v30h181c8.284,0,15-6.716,15-15S445.284,391.5,437,391.5z"/>
	<g>
		<path style="fill:#76E2F8;" d="M377,481.5H135c-8.284,0-15-6.716-15-15s6.716-15,15-15h242c8.284,0,15,6.716,15,15    S385.284,481.5,377,481.5z"/>
	</g>
	<path style="fill:#25D9F8;" d="M377,451.5H256v30h121c8.284,0,15-6.716,15-15S385.284,451.5,377,451.5z"/>
</g>















</svg>
